<?xml version="1.0" encoding="UTF-8"?>
<svg width="18" height="18" version="1.1" viewBox="0 0 18 18" xmlns="http://www.w3.org/2000/svg" xmlns:xlink="http://www.w3.org/1999/xlink">
 <defs>
  <path id="reuse-0" d="m32 75 25 6v80l-25 6a6 6 38 0 1-7-5V81a6 6 142 0 1 7-6"/>
 </defs>
 <g transform="matrix(.066577 0 0 .066577 2.2861e-5 -.0049184)">
  <g transform="matrix(1.2752 0 0 1.2752 -11 13)">
   <path d="m80 19c-11 0-20 9-20 19v116q2 18 20 19h69q20-1 21-19v-116c0-10-9-19-21-19zm35 44q10 1 11 11v44a11 11 0 1 1-22 0v-44q1-10 11-11" stroke-width=".35266"/>
   <rect transform="scale(-1)" x="-118.9" y="-112.6" width="8.3" height="33.1" rx="4.1" ry="4.1" stroke-width=".044707"/>
   <use transform="matrix(1.3797 0 0 1.3797 -26 -71)" fill="#000000" stroke-width=".25881" xlink:href="#reuse-0"/>
   <use transform="matrix(-1.3797 0 0 1.3797 255 -71)" fill="#000000" stroke-width=".25881" xlink:href="#reuse-0"/>
  </g>
 </g>
</svg>
